<svg version="1.1" id="Layer_1" xmlns="http://www.w3.org/2000/svg" xmlns:xlink="http://www.w3.org/1999/xlink" x="0px" y="0px"
	 width="100%" viewBox="0 0 470 140" enable-background="new 0 0 470 140" xml:space="preserve">
<path fill="#FEFEFE" opacity="1.000000" stroke="none" 
	d="
M450.000366,141.000000 
	C300.000275,141.000000 150.500305,141.000000 1.000243,141.000000 
	C1.000162,94.333450 1.000162,47.666901 1.000081,1.000262 
	C157.666519,1.000175 314.333038,1.000175 470.999695,1.000087 
	C470.999786,47.666515 470.999786,94.333031 470.999878,140.999771 
	C464.166840,141.000000 457.333649,141.000000 450.000366,141.000000 
M402.394257,75.061417 
	C402.765442,76.715576 401.069794,79.575470 404.468018,79.364105 
	C405.129211,79.322983 406.069092,76.588295 406.114410,75.073105 
	C406.301117,68.834763 406.192505,62.587589 406.192505,55.746727 
	C396.479736,56.351997 397.987640,65.799629 393.836182,69.677689 
	C388.540100,66.215836 391.461243,55.217117 380.667206,56.187191 
	C380.667206,63.208069 380.551758,69.991585 380.792175,76.762451 
	C380.828064,77.773277 382.535400,78.724754 383.469513,79.703682 
	C383.913635,79.368172 384.357758,79.032661 384.801880,78.697151 
	C384.801880,73.746269 384.801880,68.795387 384.801880,63.844501 
	C385.046326,63.784779 385.290771,63.725056 385.535217,63.665329 
	C388.048492,68.432587 390.561768,73.199852 393.664398,79.085007 
	C396.664948,73.213089 399.051788,68.542122 401.438660,63.871159 
	C401.758881,63.995438 402.079132,64.119720 402.399353,64.244003 
	C402.399353,67.551750 402.399353,70.859497 402.394257,75.061417 
M216.125763,77.817932 
	C216.125763,72.977783 216.125763,68.137634 216.125763,63.297489 
	C216.393204,63.261448 216.660660,63.225407 216.928101,63.189362 
	C219.450607,68.055084 221.973129,72.920799 225.147079,79.043106 
	C228.315735,72.945709 230.857147,68.055336 234.011444,61.985565 
	C234.011444,67.669327 234.154404,71.831573 233.966171,75.978798 
	C233.815964,79.288368 234.977066,80.143074 237.763031,78.952133 
	C237.763031,71.289299 237.763031,63.850143 237.763031,56.530907 
	C233.469360,55.020798 231.386520,56.946461 229.956635,60.513062 
	C228.649826,63.772694 226.999863,66.894745 225.587112,69.894791 
	C220.238419,66.096458 222.944534,55.233318 212.109482,56.247292 
	C212.109482,63.486931 212.033325,70.431046 212.276154,77.363976 
	C212.292816,77.839874 214.694550,78.232239 216.125763,77.817932 
M301.477478,75.891075 
	C303.261871,78.168213 304.846252,80.962173 308.548035,78.789703 
	C306.709076,76.226715 305.007111,73.854683 303.243073,71.396118 
	C307.117676,68.828873 309.071198,65.556984 307.502502,61.150482 
	C305.952515,56.796642 301.958008,56.406628 298.129272,56.142139 
	C295.502472,55.960682 292.852997,56.107353 290.015656,56.107353 
	C290.015656,63.967201 290.015656,71.526192 290.015656,79.262756 
	C296.964386,79.914154 291.940948,73.884720 295.157959,71.006706 
	C297.114868,72.431206 299.071777,73.855705 301.477478,75.891075 
M362.175110,79.323723 
	C363.652771,79.323723 365.130402,79.323723 366.822296,79.323723 
	C366.887299,78.238762 367.028656,76.748283 366.969604,76.740303 
	C362.854767,76.184090 358.723907,75.746437 354.569336,75.296135 
	C354.569336,73.439796 354.569336,71.749786 354.569336,70.090912 
	C365.359985,69.406708 365.359985,69.406708 364.524597,65.729210 
	C361.201233,65.729210 357.789978,65.729210 354.388245,65.729210 
	C354.388245,63.713322 354.388245,62.079517 354.388245,60.076847 
	C357.703552,60.076847 360.852386,60.232727 363.968109,59.980274 
	C364.883209,59.906124 365.704498,58.673912 366.568787,57.972458 
	C365.768799,57.354843 364.988739,56.235874 364.165527,56.203186 
	C359.721863,56.026737 355.267487,56.119617 350.519348,56.119617 
	C350.519348,64.094215 350.519348,71.596672 350.519348,79.325439 
	C354.312622,79.325439 357.784790,79.325439 362.175110,79.323723 
M128.608856,79.792053 
	C129.907013,79.538750 131.236832,79.391190 132.497849,79.013802 
	C137.899887,77.397179 141.091888,73.077278 141.028381,67.587181 
	C140.967468,62.319908 137.150955,57.275127 132.350769,56.116852 
	C126.860542,54.792076 121.235909,56.999371 118.662521,61.774769 
	C114.611336,69.292526 118.462105,78.204140 128.608856,79.792053 
M272.163910,59.276005 
	C268.258514,55.540375 263.664886,54.818665 258.865112,56.889374 
	C254.217743,58.894356 251.800598,62.575115 251.824875,67.871078 
	C251.848343,72.992851 254.392303,76.278564 258.707123,78.447746 
	C263.439972,80.827103 269.103119,79.614204 272.679382,75.579025 
	C276.992889,70.711952 276.997589,66.018234 272.163910,59.276005 
M87.646034,64.623581 
	C87.636230,68.615524 87.442993,72.620911 87.733879,76.590820 
	C87.815910,77.710335 89.316109,78.725945 90.165855,79.789207 
	C90.555061,79.486458 90.944260,79.183716 91.333458,78.880966 
	C91.445366,76.791481 91.557274,74.701988 91.691513,72.195457 
	C93.631027,72.195457 95.257332,72.219437 96.882729,72.191071 
	C102.300652,72.096542 104.652962,70.210007 105.094627,65.635094 
	C105.593590,60.466827 103.479813,57.342342 98.192123,56.550026 
	C94.854378,56.049896 91.380737,56.456711 87.688393,56.456711 
	C87.688393,59.061337 87.688393,61.364967 87.646034,64.623581 
M157.415436,68.201546 
	C158.966934,68.762276 160.680847,69.073433 162.027054,69.949615 
	C163.563110,70.949356 164.771591,72.452415 166.122437,73.736748 
	C164.119308,74.415161 162.154343,75.346420 160.095718,75.657227 
	C159.171616,75.796738 158.095306,74.353287 157.024750,74.243019 
	C155.688934,74.105446 154.287827,74.602104 152.914902,74.824928 
	C152.915726,75.416466 152.916550,76.008003 152.917374,76.599548 
	C155.460342,77.620987 157.927109,78.962349 160.563782,79.590538 
	C164.751236,80.588219 169.332535,77.881676 170.099854,74.384605 
	C171.043991,70.081596 168.949860,67.313774 163.760147,65.995644 
	C162.803040,65.752548 161.663559,65.732635 160.940063,65.177368 
	C159.772461,64.281265 158.880447,63.026066 157.872040,61.922543 
	C159.314636,61.188080 160.732025,59.918327 162.205963,59.848885 
	C164.243713,59.752884 166.324036,60.560966 168.386139,60.981873 
	C168.721420,60.586391 169.056686,60.190907 169.391968,59.795425 
	C168.174179,58.645161 167.148590,57.014183 165.702118,56.435863 
	C161.563522,54.781216 155.955734,56.204956 154.524597,59.282700 
	C153.001587,62.558010 153.185135,65.764099 157.415436,68.201546 
M188.864227,79.019325 
	C191.557358,80.076080 192.361801,79.099442 192.266556,76.318260 
	C192.085876,71.041916 192.214249,65.754990 192.214249,60.240673 
	C194.674911,60.064915 196.916656,59.904793 199.149094,59.745338 
	C198.911179,55.887165 195.036697,54.939621 184.351852,56.208237 
	C183.312271,56.331661 182.461258,58.043186 181.522705,59.017540 
	C181.873428,59.435513 182.224152,59.853481 182.574875,60.271454 
	C184.498932,60.271454 186.423004,60.271454 188.350876,60.271454 
	C188.350876,66.554962 188.350876,72.473999 188.864227,79.019325 
M331.438049,60.080921 
	C333.529907,59.982628 335.621735,59.884331 337.769165,59.783424 
	C337.126953,56.351048 329.130585,54.605141 321.962341,56.203751 
	C321.004883,56.417274 320.392059,58.176083 319.155670,59.845886 
	C322.769379,60.007603 324.822449,60.099480 327.138489,60.203129 
	C327.138489,66.951546 327.138489,73.153992 327.138489,79.356438 
	C327.645996,79.550713 328.153473,79.744987 328.660980,79.939255 
	C329.317535,78.651558 330.479126,77.387749 330.541351,76.071938 
	C330.783386,70.954521 330.676422,65.820587 331.438049,60.080921 
z"/>
<path fill="#111111" opacity="1.000000" stroke="none" 
	d="
M402.396790,74.614334 
	C402.399353,70.859497 402.399353,67.551750 402.399353,64.244003 
	C402.079132,64.119720 401.758881,63.995438 401.438660,63.871159 
	C399.051788,68.542122 396.664948,73.213089 393.664398,79.085007 
	C390.561768,73.199852 388.048492,68.432587 385.535217,63.665329 
	C385.290771,63.725056 385.046326,63.784779 384.801880,63.844501 
	C384.801880,68.795387 384.801880,73.746269 384.801880,78.697151 
	C384.357758,79.032661 383.913635,79.368172 383.469513,79.703682 
	C382.535400,78.724754 380.828064,77.773277 380.792175,76.762451 
	C380.551758,69.991585 380.667206,63.208069 380.667206,56.187191 
	C391.461243,55.217117 388.540100,66.215836 393.836182,69.677689 
	C397.987640,65.799629 396.479736,56.351997 406.192505,55.746727 
	C406.192505,62.587589 406.301117,68.834763 406.114410,75.073105 
	C406.069092,76.588295 405.129211,79.322983 404.468018,79.364105 
	C401.069794,79.575470 402.765442,76.715576 402.396790,74.614334 
z"/>
<path fill="#111111" opacity="1.000000" stroke="none" 
	d="
M216.056427,78.240692 
	C214.694550,78.232239 212.292816,77.839874 212.276154,77.363976 
	C212.033325,70.431046 212.109482,63.486931 212.109482,56.247292 
	C222.944534,55.233318 220.238419,66.096458 225.587112,69.894791 
	C226.999863,66.894745 228.649826,63.772694 229.956635,60.513062 
	C231.386520,56.946461 233.469360,55.020798 237.763031,56.530907 
	C237.763031,63.850143 237.763031,71.289299 237.763031,78.952133 
	C234.977066,80.143074 233.815964,79.288368 233.966171,75.978798 
	C234.154404,71.831573 234.011444,67.669327 234.011444,61.985565 
	C230.857147,68.055336 228.315735,72.945709 225.147079,79.043106 
	C221.973129,72.920799 219.450607,68.055084 216.928101,63.189362 
	C216.660660,63.225407 216.393204,63.261448 216.125763,63.297489 
	C216.125763,68.137634 216.125763,72.977783 216.056427,78.240692 
z"/>
<path fill="#131313" opacity="1.000000" stroke="none" 
	d="
M301.253113,75.585640 
	C299.071777,73.855705 297.114868,72.431206 295.157959,71.006706 
	C291.940948,73.884720 296.964386,79.914154 290.015656,79.262756 
	C290.015656,71.526192 290.015656,63.967201 290.015656,56.107353 
	C292.852997,56.107353 295.502472,55.960682 298.129272,56.142139 
	C301.958008,56.406628 305.952515,56.796642 307.502502,61.150482 
	C309.071198,65.556984 307.117676,68.828873 303.243073,71.396118 
	C305.007111,73.854683 306.709076,76.226715 308.548035,78.789703 
	C304.846252,80.962173 303.261871,78.168213 301.253113,75.585640 
M294.472137,60.050888 
	C294.181000,62.639641 293.889862,65.228394 293.578003,68.001480 
	C296.060760,68.001480 297.943848,68.509056 299.290680,67.875916 
	C301.064819,67.041924 302.417633,65.311714 303.951599,63.966843 
	C302.432648,62.650032 301.061005,61.065754 299.339081,60.117474 
	C298.317902,59.555096 296.744293,59.995796 294.472137,60.050888 
z"/>
<path fill="#151515" opacity="1.000000" stroke="none" 
	d="
M361.716034,79.324585 
	C357.784790,79.325439 354.312622,79.325439 350.519348,79.325439 
	C350.519348,71.596672 350.519348,64.094215 350.519348,56.119617 
	C355.267487,56.119617 359.721863,56.026737 364.165527,56.203186 
	C364.988739,56.235874 365.768799,57.354843 366.568787,57.972450 
	C365.704498,58.673912 364.883209,59.906124 363.968109,59.980274 
	C360.852386,60.232727 357.703552,60.076847 354.388245,60.076847 
	C354.388245,62.079517 354.388245,63.713322 354.388245,65.729210 
	C357.789978,65.729210 361.201233,65.729210 364.524597,65.729210 
	C365.359985,69.406708 365.359985,69.406708 354.569336,70.090912 
	C354.569336,71.749786 354.569336,73.439796 354.569336,75.296135 
	C358.723907,75.746437 362.854767,76.184090 366.969604,76.740303 
	C367.028656,76.748283 366.887299,78.238762 366.822296,79.323723 
	C365.130402,79.323723 363.652771,79.323723 361.716034,79.324585 
z"/>
<path fill="#10100F" opacity="1.000000" stroke="none" 
	d="
M128.217255,79.762459 
	C118.462105,78.204140 114.611336,69.292526 118.662521,61.774769 
	C121.235909,56.999371 126.860542,54.792076 132.350769,56.116852 
	C137.150955,57.275127 140.967468,62.319908 141.028381,67.587181 
	C141.091888,73.077278 137.899887,77.397179 132.497849,79.013802 
	C131.236832,79.391190 129.907013,79.538750 128.217255,79.762459 
M133.304642,60.784798 
	C130.092773,61.079155 126.147079,60.359142 123.898842,61.985554 
	C122.066704,63.310951 121.100639,67.828491 121.892036,70.222755 
	C122.678665,72.602638 126.022209,75.398598 128.456879,75.614243 
	C130.843857,75.825661 134.249619,73.576584 135.863861,71.407082 
	C138.455917,67.923454 137.168777,64.168640 133.304642,60.784798 
z"/>
<path fill="#0F0F0F" opacity="1.000000" stroke="none" 
	d="
M272.429443,59.543076 
	C276.997589,66.018234 276.992889,70.711952 272.679382,75.579025 
	C269.103119,79.614204 263.439972,80.827103 258.707123,78.447746 
	C254.392303,76.278564 251.848343,72.992851 251.824875,67.871078 
	C251.800598,62.575115 254.217743,58.894356 258.865112,56.889374 
	C263.664886,54.818665 268.258514,55.540375 272.429443,59.543076 
M257.164612,62.856285 
	C257.294556,66.259613 256.389923,70.194168 257.799927,72.940193 
	C259.850433,76.933548 265.077209,77.037453 268.548401,74.208649 
	C272.508911,70.981094 273.013153,66.382828 269.840698,62.423759 
	C266.857849,58.701294 262.057007,58.616112 257.164612,62.856285 
z"/>
<path fill="#0C0C0C" opacity="1.000000" stroke="none" 
	d="
M87.667213,64.146088 
	C87.688393,61.364967 87.688393,59.061337 87.688393,56.456711 
	C91.380737,56.456711 94.854378,56.049896 98.192123,56.550026 
	C103.479813,57.342342 105.593590,60.466827 105.094627,65.635094 
	C104.652962,70.210007 102.300652,72.096542 96.882729,72.191071 
	C95.257332,72.219437 93.631027,72.195457 91.691513,72.195457 
	C91.557274,74.701988 91.445366,76.791481 91.333458,78.880966 
	C90.944260,79.183716 90.555061,79.486458 90.165855,79.789207 
	C89.316109,78.725945 87.815910,77.710335 87.733879,76.590820 
	C87.442993,72.620911 87.636230,68.615524 87.667213,64.146088 
M98.781471,60.357334 
	C96.393532,60.205502 94.005592,60.053669 91.624817,59.902290 
	C91.624817,63.289967 91.624817,66.025146 91.624817,70.012512 
	C95.044594,68.881615 98.083420,68.339272 100.466881,66.789207 
	C101.128761,66.358772 99.847328,62.940182 98.781471,60.357334 
z"/>
<path fill="#101010" opacity="1.000000" stroke="none" 
	d="
M157.060898,68.073311 
	C153.185135,65.764099 153.001587,62.558010 154.524597,59.282700 
	C155.955734,56.204956 161.563522,54.781216 165.702118,56.435863 
	C167.148590,57.014183 168.174179,58.645161 169.391968,59.795425 
	C169.056686,60.190907 168.721420,60.586391 168.386139,60.981873 
	C166.324036,60.560966 164.243713,59.752884 162.205963,59.848885 
	C160.732025,59.918327 159.314636,61.188080 157.872040,61.922539 
	C158.880447,63.026066 159.772461,64.281265 160.940063,65.177368 
	C161.663559,65.732635 162.803040,65.752548 163.760147,65.995644 
	C168.949860,67.313774 171.043991,70.081596 170.099854,74.384605 
	C169.332535,77.881676 164.751236,80.588219 160.563782,79.590538 
	C157.927109,78.962349 155.460342,77.620987 152.917374,76.599548 
	C152.916550,76.008003 152.915726,75.416466 152.914902,74.824928 
	C154.287827,74.602104 155.688934,74.105446 157.024750,74.243019 
	C158.095306,74.353287 159.171616,75.796738 160.095718,75.657227 
	C162.154343,75.346420 164.119308,74.415161 166.122437,73.736748 
	C164.771591,72.452415 163.563110,70.949356 162.027054,69.949615 
	C160.680847,69.073433 158.966934,68.762276 157.060898,68.073311 
z"/>
<path fill="#161616" opacity="1.000000" stroke="none" 
	d="
M188.607544,78.706177 
	C188.350876,72.473999 188.350876,66.554962 188.350876,60.271454 
	C186.423004,60.271454 184.498932,60.271454 182.574875,60.271454 
	C182.224152,59.853481 181.873428,59.435513 181.522705,59.017540 
	C182.461258,58.043186 183.312271,56.331661 184.351852,56.208237 
	C195.036697,54.939621 198.911179,55.887165 199.149094,59.745338 
	C196.916656,59.904793 194.674911,60.064915 192.214249,60.240673 
	C192.214249,65.754990 192.085876,71.041916 192.266556,76.318260 
	C192.361801,79.099442 191.557358,80.076080 188.607544,78.706177 
z"/>
<path fill="#1B1B1B" opacity="1.000000" stroke="none" 
	d="
M331.068665,60.386864 
	C330.676422,65.820587 330.783386,70.954521 330.541351,76.071938 
	C330.479126,77.387749 329.317535,78.651558 328.660980,79.939255 
	C328.153473,79.744987 327.645996,79.550713 327.138489,79.356438 
	C327.138489,73.153992 327.138489,66.951546 327.138489,60.203129 
	C324.822449,60.099480 322.769379,60.007603 319.155670,59.845886 
	C320.392059,58.176083 321.004883,56.417274 321.962341,56.203751 
	C329.130585,54.605141 337.126953,56.351048 337.769165,59.783424 
	C335.621735,59.884331 333.529907,59.982628 331.068665,60.386864 
z"/>
<path fill="#F8F9F8" opacity="1.000000" stroke="none" 
	d="
M294.945618,60.018188 
	C296.744293,59.995796 298.317902,59.555096 299.339081,60.117474 
	C301.061005,61.065754 302.432648,62.650032 303.951599,63.966843 
	C302.417633,65.311714 301.064819,67.041924 299.290680,67.875916 
	C297.943848,68.509056 296.060760,68.001480 293.578003,68.001480 
	C293.889862,65.228394 294.181000,62.639641 294.945618,60.018188 
z"/>
<path fill="#F9F9F9" opacity="1.000000" stroke="none" 
	d="
M133.643036,61.009487 
	C137.168777,64.168640 138.455917,67.923454 135.863861,71.407082 
	C134.249619,73.576584 130.843857,75.825661 128.456879,75.614243 
	C126.022209,75.398598 122.678665,72.602638 121.892036,70.222755 
	C121.100639,67.828491 122.066704,63.310951 123.898842,61.985554 
	C126.147079,60.359142 130.092773,61.079155 133.643036,61.009487 
z"/>
<path fill="#F8F8F8" opacity="1.000000" stroke="none" 
	d="
M257.422119,62.532139 
	C262.057007,58.616112 266.857849,58.701294 269.840698,62.423759 
	C273.013153,66.382828 272.508911,70.981094 268.548401,74.208649 
	C265.077209,77.037453 259.850433,76.933548 257.799927,72.940193 
	C256.389923,70.194168 257.294556,66.259613 257.422119,62.532139 
z"/>
<path fill="#F0F0F0" opacity="1.000000" stroke="none" 
	d="
M99.119461,60.624920 
	C99.847328,62.940182 101.128761,66.358772 100.466881,66.789207 
	C98.083420,68.339272 95.044594,68.881615 91.624817,70.012512 
	C91.624817,66.025146 91.624817,63.289967 91.624817,59.902290 
	C94.005592,60.053669 96.393532,60.205502 99.119461,60.624920 
z"/>
</svg>